<svg xmlns="http://www.w3.org/2000/svg" xmlns:xlink="http://www.w3.org/1999/xlink" viewBox="0 0 52 75" version="1.1" x="0px" y="0px"><title>18 -Lander- (space, astronomy)</title><desc>Created with Sketch.</desc><g stroke="none" stroke-width="1" fill="none" fill-rule="evenodd"><g transform="translate(-990.000000, -502.000000)" fill="#000000"><g transform="translate(990.000000, 502.000000)"><path d="M38.1994,50.7355 L44.4144,46.5925 L46.4564,53.7375 L38.1994,50.7355 Z M32.0004,46.9995 C31.4474,46.9995 31.0004,46.5525 31.0004,45.9995 C31.0004,45.4475 31.4474,44.9995 32.0004,44.9995 C32.5524,44.9995 33.0004,45.4475 33.0004,45.9995 C33.0004,46.5525 32.5524,46.9995 32.0004,46.9995 L32.0004,46.9995 Z M28.0004,46.9995 C27.4474,46.9995 27.0004,46.5525 27.0004,45.9995 C27.0004,45.4475 27.4474,44.9995 28.0004,44.9995 C28.5524,44.9995 29.0004,45.4475 29.0004,45.9995 C29.0004,46.5525 28.5524,46.9995 28.0004,46.9995 L28.0004,46.9995 Z M24.0004,46.9995 C23.4474,46.9995 23.0004,46.5525 23.0004,45.9995 C23.0004,45.4475 23.4474,44.9995 24.0004,44.9995 C24.5524,44.9995 25.0004,45.4475 25.0004,45.9995 C25.0004,46.5525 24.5524,46.9995 24.0004,46.9995 L24.0004,46.9995 Z M20.0004,46.9995 C19.4474,46.9995 19.0004,46.5525 19.0004,45.9995 C19.0004,45.4475 19.4474,44.9995 20.0004,44.9995 C20.5524,44.9995 21.0004,45.4475 21.0004,45.9995 C21.0004,46.5525 20.5524,46.9995 20.0004,46.9995 L20.0004,46.9995 Z M7.5854,46.5925 L13.8004,50.7355 L5.5434,53.7375 L7.5854,46.5925 Z M15.0004,49.1315 L9.0664,45.1755 L15.0004,42.5385 L15.0004,49.1315 Z M23.0004,39.9995 L29.0004,39.9995 L29.0004,35.9995 L23.0004,35.9995 L23.0004,39.9995 Z M24.7984,8.9705 C24.9184,8.9705 25.0654,8.9775 25.1854,8.9835 C25.3644,8.9915 25.5514,8.9995 25.7444,8.9995 L26.2554,8.9995 C26.4484,8.9995 26.6354,8.9915 26.8144,8.9835 C26.9384,8.9775 27.0994,8.9635 27.2124,8.9705 L27.3264,9.9955 L27.3264,9.9955 L28.4844,20.4165 L28.4844,20.4165 L28.9934,24.9995 L23.0064,24.9995 L24.7914,8.9705 L24.7984,8.9705 Z M29.0004,27.3865 L29.0004,33.5645 C27.0244,34.1305 24.9764,34.1305 23.0004,33.5645 L23.0004,27.4155 L23.0004,26.9995 L29.0004,26.9995 L29.0004,27.3865 Z M37.0004,42.5385 L42.9334,45.1755 L37.0004,49.1315 L37.0004,42.5385 Z M51.0004,57.9995 L49.7544,57.9995 L45.9624,44.7255 C45.9574,44.7095 45.9464,44.6995 45.9414,44.6855 C45.9244,44.6345 45.8974,44.5905 45.8724,44.5435 C45.8554,44.5115 45.8524,44.4755 45.8324,44.4455 C45.8234,44.4325 45.8094,44.4255 45.7994,44.4135 C45.7834,44.3905 45.7684,44.3695 45.7504,44.3485 C45.7174,44.3105 45.6744,44.2825 45.6354,44.2485 C45.5944,44.2135 45.5574,44.1755 45.5114,44.1485 C45.4884,44.1345 45.4664,44.1245 45.4424,44.1125 C45.4284,44.1055 45.4204,44.0925 45.4064,44.0865 L36.4064,40.0865 C36.4034,40.0855 36.4014,40.0855 36.3984,40.0845 C36.3374,40.0585 36.2674,40.0545 36.2004,40.0405 C36.1364,40.0275 36.0734,40.0025 36.0094,40.0015 C36.0054,40.0015 36.0034,39.9995 36.0004,39.9995 L31.0004,39.9995 L31.0004,35.9995 L31.0004,34.9795 C32.2714,34.4485 33.4294,33.7295 34.4454,32.8595 L38.2934,36.7065 C38.4884,36.9025 38.7444,36.9995 39.0004,36.9995 C39.2554,36.9995 39.5114,36.9025 39.7074,36.7065 C40.0974,36.3165 40.0974,35.6835 39.7074,35.2925 L35.8594,31.4455 C37.8354,29.1405 39.0004,26.1665 39.0004,22.9995 C39.0004,22.9745 38.9964,22.9505 38.9964,22.9255 L31.0004,26.4935 L31.0004,24.9995 L30.3974,19.5585 L37.2334,16.4915 C36.8344,15.8055 36.3644,15.1655 35.8504,14.5635 L39.7074,10.7065 C40.0974,10.3165 40.0974,9.6835 39.7074,9.2925 C39.3164,8.9025 38.6834,8.9025 38.2934,9.2925 L34.4384,13.1475 C33.0034,11.9095 31.2904,10.9845 29.3914,10.4695 L29.1864,8.6225 C29.0164,7.0865 27.7604,6.9625 27.0004,6.9755 L27.0004,3.9995 L28.0004,3.9995 C28.5524,3.9995 29.0004,3.5525 29.0004,2.9995 C29.0004,2.4475 28.5524,1.9995 28.0004,1.9995 L27.0004,1.9995 L27.0004,0.9995 C27.0004,0.4475 26.5524,-0.0005 26.0004,-0.0005 C25.4474,-0.0005 25.0004,0.4475 25.0004,0.9995 L25.0004,1.9995 L24.0004,1.9995 C23.4474,1.9995 23.0004,2.4475 23.0004,2.9995 C23.0004,3.5525 23.4474,3.9995 24.0004,3.9995 L25.0004,3.9995 L25.0004,6.9755 C24.2404,6.9625 22.9834,7.0875 22.8134,8.6225 L22.6084,10.4695 C20.7094,10.9835 18.9944,11.9075 17.5604,13.1465 L13.7074,9.2925 C13.3164,8.9025 12.6834,8.9025 12.2934,9.2925 C11.9024,9.6835 11.9024,10.3165 12.2934,10.7065 L16.1554,14.5695 C15.6954,15.1085 15.2674,15.6735 14.8984,16.2805 L21.6044,19.5045 L21.3704,21.6115 L15.7904,18.9285 C15.4644,19.7425 15.2394,20.5895 15.1184,21.4605 L21.0724,24.2875 L21.0054,24.8895 L21.0054,25.9735 C21.0054,25.9825 21.0004,25.9905 21.0004,25.9995 C21.0004,26.0095 21.0054,26.0165 21.0054,26.0265 L21.0054,26.4685 L13.0144,22.6755 C13.0114,22.7845 13.0004,22.8905 13.0004,22.9995 C13.0004,26.1665 14.1644,29.1405 16.1404,31.4455 L12.2934,35.2925 C11.9024,35.6835 11.9024,36.3165 12.2934,36.7065 C12.4884,36.9025 12.7444,36.9995 13.0004,36.9995 C13.2554,36.9995 13.5114,36.9025 13.7074,36.7065 L17.5554,32.8595 C18.5704,33.7295 19.7284,34.4485 21.0004,34.9795 L21.0004,39.9995 L16.0004,39.9995 C15.9974,39.9995 15.9944,40.0015 15.9914,40.0015 C15.9284,40.0025 15.8664,40.0265 15.8034,40.0395 C15.7354,40.0535 15.6634,40.0575 15.6014,40.0845 C15.5994,40.0855 15.5964,40.0855 15.5934,40.0865 L6.5934,44.0865 C6.5794,44.0925 6.5714,44.1055 6.5574,44.1125 C6.5344,44.1235 6.5124,44.1345 6.4894,44.1475 C6.4434,44.1755 6.4054,44.2145 6.3634,44.2495 C6.3244,44.2825 6.2824,44.3105 6.2494,44.3485 C6.2314,44.3695 6.2164,44.3905 6.2004,44.4125 C6.1914,44.4255 6.1764,44.4315 6.1684,44.4455 C6.1474,44.4755 6.1444,44.5115 6.1274,44.5435 C6.1034,44.5905 6.0754,44.6345 6.0584,44.6855 C6.0534,44.6995 6.0424,44.7105 6.0384,44.7255 L2.2454,57.9995 L1.0004,57.9995 C0.4474,57.9995 0.0004,58.4475 0.0004,58.9995 C0.0004,59.5525 0.4474,59.9995 1.0004,59.9995 L2.9974,59.9995 C2.9984,59.9995 2.9994,60.0005 3.0014,60.0005 C3.0024,60.0005 3.0034,59.9995 3.0044,59.9995 L6.0004,59.9995 C6.5524,59.9995 7.0004,59.5525 7.0004,58.9995 C7.0004,58.4475 6.5524,57.9995 6.0004,57.9995 L4.3264,57.9995 L4.9014,55.9855 C4.9354,55.9885 4.9664,56.0005 5.0004,56.0005 C5.1134,56.0005 5.2284,55.9805 5.3414,55.9395 L16.1764,51.9995 L25.0004,51.9995 L25.0004,57.9995 L24.0004,57.9995 C23.4474,57.9995 23.0004,58.4475 23.0004,58.9995 C23.0004,59.5525 23.4474,59.9995 24.0004,59.9995 L28.0004,59.9995 C28.5524,59.9995 29.0004,59.5525 29.0004,58.9995 C29.0004,58.4475 28.5524,57.9995 28.0004,57.9995 L27.0004,57.9995 L27.0004,51.9995 L35.8234,51.9995 L46.6584,55.9395 C46.7714,55.9805 46.8864,56.0005 47.0004,56.0005 C47.0334,56.0005 47.0654,55.9885 47.0984,55.9855 L47.6734,57.9995 L46.0004,57.9995 C45.4474,57.9995 45.0004,58.4475 45.0004,58.9995 C45.0004,59.5525 45.4474,59.9995 46.0004,59.9995 L48.9964,59.9995 C48.9974,59.9995 48.9984,60.0005 48.9994,60.0005 C49.0004,60.0005 49.0014,59.9995 49.0024,59.9995 L51.0004,59.9995 C51.5524,59.9995 52.0004,59.5525 52.0004,58.9995 C52.0004,58.4475 51.5524,57.9995 51.0004,57.9995 L51.0004,57.9995 Z"/><path d="M30.9316,24.334 L36.9056,21.668 C36.7996,20.79 36.5896,19.935 36.2786,19.112 L30.6326,21.645 L30.9316,24.334 Z"/></g></g></g><text x="0" y="75" fill="#000000" font-size="5px" font-weight="bold" font-family="'Helvetica Neue', Helvetica, Arial-Unicode, Arial, Sans-serif">Created by Oliviu Stoian</text><text x="0" y="80" fill="#000000" font-size="5px" font-weight="bold" font-family="'Helvetica Neue', Helvetica, Arial-Unicode, Arial, Sans-serif">from the Noun Project</text></svg>