<svg xmlns="http://www.w3.org/2000/svg" xmlns:xlink="http://www.w3.org/1999/xlink" version="1.1" x="0px" y="0px" viewBox="0 0 48 60" style="enable-background:new 0 0 48 48;" xml:space="preserve"><style type="text/css">
	.st0{fill:#FFFFFF;}
	.st1{fill:none;stroke:#000000;stroke-width:3;stroke-linecap:round;stroke-miterlimit:10;}
</style><path d="M22,18.5c0,1.4-1.1,2.5-2.5,2.5S17,19.9,17,18.5s1.1-2.5,2.5-2.5S22,17.1,22,18.5z M48,24c0,13.3-10.7,24-24,24S0,37.3,0,24  S10.8,0,24,0S48,10.8,48,24z M23,41.9c-9.3-0.5-16.7-8.1-16.9-17.4H3c0.3,11,9,19.9,20,20.5V41.9z M23,36.9c-2.3-0.2-4.5-1-6.3-2.3  c-0.4,0.2-0.7,0.3-1.2,0.3c-1.4,0-2.5-1.1-2.5-2.5c0-0.4,0.1-0.8,0.3-1.2c-1.3-2-2.2-4.3-2.3-6.8h-3c0.2,8.2,6.8,14.9,14.9,15.4  V36.9z M23,24.5h-9.9c0.1,2.1,0.7,4,1.8,5.6c0.2-0.1,0.4-0.1,0.6-0.1c1.4,0,2.5,1.1,2.5,2.5c0,0.2,0,0.4-0.1,0.6  c1.5,1,3.2,1.7,5.1,1.8V24.5z M23,13.1c-5.1,0.5-9.2,4.4-9.9,9.4H23V13.1z M23,8.1c-3.8,0.2-7.2,1.8-9.9,4.3c0.1,0.3,0.2,0.6,0.2,1  c0,1.4-1.1,2.5-2.5,2.5c-0.2,0-0.4,0-0.5-0.1c-1.2,2-2,4.3-2.2,6.7h3c0.7-6.1,5.7-10.9,11.9-11.4V8.1z M23,3.1  C12.4,3.6,3.8,12,3.1,22.5h3c0.2-2.9,1.2-5.6,2.6-7.9c-0.2-0.4-0.4-0.8-0.4-1.3c0-1.4,1.1-2.5,2.5-2.5c0.3,0,0.5,0.1,0.8,0.1  c3-2.8,7-4.7,11.4-4.9V3.1z M28,22.5h17c-0.2-2.1-0.6-4.1-1.3-6L28,22.5z M25,6.1c1.6,0.1,3.2,0.4,4.7,0.9l0.9-2.9  c-1.8-0.6-3.7-0.9-5.6-1V6.1z M25,11.1c1.1,0.1,2.1,0.3,3.1,0.6l0.9-2.8c-1.3-0.4-2.6-0.7-4.1-0.8V11.1z M25,21l2.5-7.5  c-0.8-0.3-1.6-0.4-2.5-0.5V21z M45,24.5H25V35c2.6-0.2,5-1.4,6.8-3.2l1.4,1.4c-2.1,2.1-5,3.5-8.2,3.8v3c4-0.2,7.6-2,10.3-4.6  l1.4,1.4c-3,3-7.2,5-11.7,5.2v3C36,44.5,44.7,35.5,45,24.5z"/><text x="0" y="63" fill="#000000" font-size="5px" font-weight="bold" font-family="'Helvetica Neue', Helvetica, Arial-Unicode, Arial, Sans-serif">Created by Kenneth Chua</text><text x="0" y="68" fill="#000000" font-size="5px" font-weight="bold" font-family="'Helvetica Neue', Helvetica, Arial-Unicode, Arial, Sans-serif">from the Noun Project</text></svg>