<svg xmlns="http://www.w3.org/2000/svg" xmlns:xlink="http://www.w3.org/1999/xlink" version="1.1" x="0px" y="0px" viewBox="0 0 100 125" enable-background="new 0 0 100 100" xml:space="preserve"><path d="M91.644,8.356c-2.162-2.162-13.566,5.906-17.806,9.037c-1.379,0.068-2.66,0.565-3.625,1.53L58.923,30.213l-18.595,9.789  l-22.591,2.955l-6.978,6.978L7.993,52.7l0.269,0.269l9.536,14.617l-1.679,1.68l-2.864,2.864l6.452,6.452l-3.582,3.582l1.712,1.712  l3.582-3.582l6.452,6.452l2.864-2.864l1.679-1.679l14.618,9.537l0.267,0.267l2.766-2.765l6.978-6.978l2.954-22.591l9.79-18.596  l11.288-11.289c0.965-0.965,1.462-2.245,1.53-3.624C85.738,21.924,93.806,10.518,91.644,8.356z M79.425,28.135  c-0.23,0.229-0.486,0.418-0.76,0.573c0.986-1.739,0.499-4.264-1.305-6.068c-1.803-1.803-4.328-2.29-6.067-1.304  c0.154-0.275,0.343-0.53,0.572-0.76c1.683-1.683,4.74-1.355,6.827,0.732C80.779,23.395,81.107,26.452,79.425,28.135z"/><text x="0" y="115" fill="#000000" font-size="5px" font-weight="bold" font-family="'Helvetica Neue', Helvetica, Arial-Unicode, Arial, Sans-serif">Created by Daniela Baptista</text><text x="0" y="120" fill="#000000" font-size="5px" font-weight="bold" font-family="'Helvetica Neue', Helvetica, Arial-Unicode, Arial, Sans-serif">from the Noun Project</text></svg>